<?xml version="1.0" encoding="UTF-8" standalone="no"?>
<!-- Created with Inkscape (http://www.inkscape.org/) -->

<svg
   xmlns:dc="http://purl.org/dc/elements/1.1/"
   xmlns:cc="http://creativecommons.org/ns#"
   xmlns:rdf="http://www.w3.org/1999/02/22-rdf-syntax-ns#"
   xmlns:svg="http://www.w3.org/2000/svg"
   xmlns="http://www.w3.org/2000/svg"
   xmlns:sodipodi="http://sodipodi.sourceforge.net/DTD/sodipodi-0.dtd"
   xmlns:inkscape="http://www.inkscape.org/namespaces/inkscape"
   width="16"
   height="16"
   id="svg3920"
   version="1.1"
   inkscape:version="0.48.1 r9760"
   sodipodi:docname="New document 5">
  <defs
     id="defs3922" />
  <sodipodi:namedview
     id="base"
     pagecolor="#ffffff"
     bordercolor="#666666"
     borderopacity="1.0"
     inkscape:pageopacity="0.0"
     inkscape:pageshadow="2"
     inkscape:zoom="11.2"
     inkscape:cx="1.0112379"
     inkscape:cy="11.731267"
     inkscape:document-units="px"
     inkscape:current-layer="layer1"
     showgrid="false"
     inkscape:window-width="1068"
     inkscape:window-height="829"
     inkscape:window-x="411"
     inkscape:window-y="49"
     inkscape:window-maximized="0" />
  <metadata
     id="metadata3925">
    <rdf:RDF>
      <cc:Work
         rdf:about="">
        <dc:format>image/svg+xml</dc:format>
        <dc:type
           rdf:resource="http://purl.org/dc/dcmitype/StillImage" />
        <dc:title></dc:title>
      </cc:Work>
    </rdf:RDF>
  </metadata>
  <g
     inkscape:label="Layer 1"
     inkscape:groupmode="layer"
     id="layer1"
     transform="translate(0,-1036.3622)">
    <path
       style="font-size:medium;font-style:normal;font-variant:normal;font-weight:normal;font-stretch:normal;text-indent:0;text-align:start;text-decoration:none;line-height:normal;letter-spacing:normal;word-spacing:normal;text-transform:none;direction:ltr;block-progression:tb;writing-mode:lr-tb;text-anchor:start;baseline-shift:baseline;opacity:0.3;color:#000000;fill:#ffffff;fill-opacity:1;stroke:none;stroke-width:2;marker:none;visibility:visible;display:inline;overflow:visible;enable-background:accumulate;font-family:Sans;-inkscape-font-specification:Sans"
       d="m 7.2049299,1038.3979 c -1.432326,0 -2.59375,1.1614 -2.59375,2.5938 l 0,6.9687 c -0.686446,0.6856 -1.1875,1.5722 -1.1875,2.625 0,2.0937 1.718759,3.8125 3.8125,3.8125 2.0937367,0 3.8124941,-1.7188 3.8124941,-3.8125 0,-1.0573 -0.523629,-1.9349 -1.2187496,-2.625 -7.17e-4,-0.7438 -9.27e-4,-1.3598 0,-2 a 1.0043849,1.0043849 0 0 0 0.0625,0 l 1.8124996,0 a 1.0001,1.0001 0 1 0 0,-2 l -1.8124996,0 a 1.0001,1.0001 0 0 0 -0.0625,0 c 3.43e-4,-0.3034 3.3e-5,-0.653 0,-0.9687 a 1.0043849,1.0043849 0 0 0 0.0625,0 l 1.8124996,0 a 1.0001,1.0001 0 1 0 0,-2 l -1.8124996,0 a 1.0001,1.0001 0 0 0 -0.0625,0 c 7e-6,-1.4538 -1.1926713,-2.5938 -2.6249945,-2.5938 z m 0,2 c 0.27199,0 0.625,0.3432 0.624999,0.5938 0.01108,2.799 -0.0038,4.4747 0,7.2812 l 0,0.5313 0.437499,0.2812 c 0.472665,0.3299 0.7812483,0.8867 0.7812483,1.5 0,1.0129 -0.7996372,1.8125 -1.8124963,1.8125 -1.012861,0 -1.8125,-0.7996 -1.8125,-1.8125 0,-0.6006 0.316404,-1.1338 0.78125,-1.4687 l 0.40625,-0.3125 0,-0.5 0,-7.3125 c 0,-0.272 0.32176,-0.5938 0.59375,-0.5938 z"
       id="path3008-6-8-8-6-4-4-8"
       inkscape:connector-curvature="0" />
    <path
       style="font-size:medium;font-style:normal;font-variant:normal;font-weight:normal;font-stretch:normal;text-indent:0;text-align:start;text-decoration:none;line-height:normal;letter-spacing:normal;word-spacing:normal;text-transform:none;direction:ltr;block-progression:tb;writing-mode:lr-tb;text-anchor:start;baseline-shift:baseline;color:#000000;fill:#ff0000;fill-opacity:1;stroke:none;stroke-width:2;marker:none;visibility:visible;display:inline;overflow:visible;enable-background:accumulate;font-family:Sans;-inkscape-font-specification:Sans"
       d="m 7.2049299,1036.3979 c -1.432326,0 -2.59375,1.1614 -2.59375,2.5938 l 0,6.9687 c -0.686446,0.6856 -1.1875,1.5722 -1.1875,2.625 0,2.0937 1.718759,3.8125 3.8125,3.8125 2.0937367,0 3.8124941,-1.7188 3.8124941,-3.8125 0,-1.0573 -0.523629,-1.9349 -1.2187496,-2.625 -7.17e-4,-0.7438 -9.27e-4,-1.3598 0,-2 a 1.0043849,1.0043849 0 0 0 0.0625,0 l 1.8124996,0 a 1.0001,1.0001 0 1 0 0,-2 l -1.8124996,0 a 1.0001,1.0001 0 0 0 -0.0625,0 c 3.43e-4,-0.3034 3.3e-5,-0.653 0,-0.9687 a 1.0043849,1.0043849 0 0 0 0.0625,0 l 1.8124996,0 a 1.0001,1.0001 0 1 0 0,-2 l -1.8124996,0 a 1.0001,1.0001 0 0 0 -0.0625,0 c 7e-6,-1.4538 -1.1926713,-2.5938 -2.6249945,-2.5938 z m 0,2 c 0.27199,0 0.625,0.3432 0.624999,0.5938 0.01108,2.799 -0.0038,4.4747 0,7.2812 l 0,0.5313 0.437499,0.2812 c 0.472665,0.3299 0.7812483,0.8867 0.7812483,1.5 0,1.0129 -0.7996372,1.8125 -1.8124963,1.8125 -1.012861,0 -1.8125,-0.7996 -1.8125,-1.8125 0,-0.6006 0.316404,-1.1338 0.78125,-1.4687 l 0.40625,-0.3125 0,-0.5 0,-7.3125 c 0,-0.272 0.32176,-0.5938 0.59375,-0.5938 z"
       id="path3008-6-8-8-7-7-8"
       inkscape:connector-curvature="0" />
  </g>
</svg>
